<svg width="48" height="48" viewBox="0 0 48 48" fill="none" xmlns="http://www.w3.org/2000/svg">
<g clip-path="url(#clip0_1695_259)">
<path fill-rule="evenodd" clip-rule="evenodd" d="M13.2909 0H35.0817C38.0272 0 40.4151 2.38781 40.4151 5.33333C40.4151 6.74782 39.8532 8.10438 38.853 9.10457L28.1863 19.7712C27.1861 20.7714 25.8295 21.3333 24.4151 21.3333H13.2909C10.3453 21.3333 7.95753 18.9455 7.95753 16V5.33333C7.95753 2.38781 10.3453 0 13.2909 0ZM34.6242 48H12.8333C9.88781 48 7.5 45.6122 7.5 42.6667C7.5 41.2522 8.0619 39.8956 9.0621 38.8954L19.7288 28.2288C20.729 27.2286 22.0855 26.6667 23.5 26.6667H34.6242C37.5697 26.6667 39.9575 29.0545 39.9575 32V42.6667C39.9575 45.6122 37.5697 48 34.6242 48Z" fill="#05051E"/>
</g>
<defs>
<clipPath id="clip0_1695_259">
<rect width="48" height="48" fill="white"/>
</clipPath>
</defs>
</svg>
