<svg width="48" height="48" viewBox="0 0 48 48" fill="none" xmlns="http://www.w3.org/2000/svg">
<g clip-path="url(#clip0_1695_271)">
<path fill-rule="evenodd" clip-rule="evenodd" d="M19.1656 25.4247L40.292 25.4604C43.446 25.4657 46 28.0411 46 31.2161V42.2443C46 45.3742 43.5183 47.9206 40.4276 47.9982L40.2693 48L23.8037 47.9619C21.5159 47.9567 19.4515 46.5791 18.5557 44.4599L13.8948 33.4341C12.6584 30.5091 14.0116 27.1289 16.9172 25.8842C17.6281 25.5797 18.393 25.4234 19.1656 25.4247ZM7.72638 4.56322e-06L40.2896 0.0416923C43.4446 0.0457213 46 2.62147 46 5.79741V15.3376C46 18.5164 43.4401 21.0933 40.2824 21.0933H11.7694C9.47682 21.0933 7.40593 19.7147 6.50828 17.5912L2.45799 8.00943C1.22157 5.08444 2.57472 1.70427 5.48036 0.459623C6.19054 0.155415 6.95458 -0.000973908 7.72638 4.56322e-06Z" fill="#05051E"/>
</g>
<defs>
<clipPath id="clip0_1695_271">
<rect width="48" height="48" fill="white"/>
</clipPath>
</defs>
</svg>
