<svg width="48" height="48" viewBox="0 0 48 48" fill="none" xmlns="http://www.w3.org/2000/svg">
<g clip-path="url(#clip0_356_1363)">
<path d="M1.75736 21.7574C0.632141 20.6321 0 19.106 0 17.5147V6C0 2.68629 2.68629 0 6 0H17.5147C20.8284 0 23.5147 2.68629 23.5147 6C23.5147 7.5913 22.8826 9.11742 21.7574 10.2426L10.2426 21.7574C7.89949 24.1005 4.1005 24.1005 1.75736 21.7574ZM32 48C23.1634 48 16 40.8366 16 32C16 23.1634 23.1634 16 32 16C40.8366 16 48 23.1634 48 32C48 40.8366 40.8366 48 32 48Z" fill="#05051E"/>
</g>
<defs>
<clipPath id="clip0_356_1363">
<rect width="48" height="48" fill="white"/>
</clipPath>
</defs>
</svg>
