<svg width="48" height="48" viewBox="0 0 48 48" fill="none" xmlns="http://www.w3.org/2000/svg">
<g clip-path="url(#clip0_356_1398)">
<path fill-rule="evenodd" clip-rule="evenodd" d="M42.433 28.9928C45.4307 28.9928 47.875 31.3622 47.9954 34.3305L48 34.56V42.24C48 45.3454 45.5426 47.8769 42.4664 47.9956L42.2403 48H34.56C33.0835 48 31.6675 47.4134 30.6236 46.3693C28.5117 44.2573 28.4515 40.8706 30.4427 38.6859L30.6237 38.4963L38.4967 30.6233C39.5407 29.5793 40.9566 28.9928 42.433 28.9928ZM42.6918 8.75043L44.0495 10.1083C45.8655 11.9241 45.9222 14.8331 44.2199 16.7173L44.0495 16.8964L16.8961 44.0498C15.0216 45.9241 11.9826 45.9241 10.1081 44.0497L8.75034 42.6919C6.87583 40.8174 6.87583 37.7782 8.75026 35.9037L35.9038 8.75035C37.7783 6.87599 40.8173 6.87602 42.6918 8.75043ZM20.6543 0C22.1819 0 23.647 0.606891 24.7272 1.68716C26.9139 3.87414 26.9746 7.38212 24.9092 9.6424L24.727 9.83303L9.8324 24.7276C8.75224 25.8078 7.28727 26.4146 5.75974 26.4146C2.65446 26.4146 0.123138 23.9571 0.00435891 20.8807L0 20.6546V5.76C0 2.65458 2.45739 0.123143 5.53357 0.0043591L5.75974 0H20.6543Z" fill="#05051E"/>
</g>
<defs>
<clipPath id="clip0_356_1398">
<rect width="48" height="48" fill="white"/>
</clipPath>
</defs>
</svg>
