<svg width="48" height="48" viewBox="0 0 48 48" fill="none" xmlns="http://www.w3.org/2000/svg">
<path fill-rule="evenodd" clip-rule="evenodd" d="M5.76 46.08C2.62778 46.08 0.0794915 43.5799 0.00182393 40.4664L0 40.32V7.68004C0 4.54782 2.5001 1.99954 5.61361 1.92187L5.76 1.92004H8.64C20.8344 1.92004 30.72 11.8056 30.72 24C30.72 36.0725 21.0312 45.8821 9.00513 46.0771L8.64 46.08H5.76ZM37.3307 11.7578L41.28 9.36004C43.3685 8.09201 46.0895 8.75715 47.3576 10.8457C47.7778 11.5378 48 12.332 48 13.1416V34.8584C48 37.3018 46.0193 39.2825 43.576 39.2825C42.7663 39.2825 41.9721 39.0603 41.28 38.64L37.3307 36.2422C35.6104 35.1978 34.56 33.3312 34.56 31.3187V16.6814C34.56 14.6689 35.6104 12.8023 37.3307 11.7578Z" fill="#05051E"/>
</svg>
