<svg width="48" height="48" viewBox="0 0 48 48" fill="none" xmlns="http://www.w3.org/2000/svg">
<g clip-path="url(#clip0_356_1402)">
<path fill-rule="evenodd" clip-rule="evenodd" d="M14.4 26.4C18.3764 26.4 21.6 29.6235 21.6 33.6V40.8C21.6 44.7764 18.3764 48 14.4 48H7.2C3.22355 48 0 44.7764 0 40.8V33.6C0 29.6235 3.22355 26.4 7.2 26.4H14.4ZM40.8 0C44.7764 0 48 3.22355 48 7.2V40.8C48 44.7764 44.7764 48 40.8 48H31.2C28.549 48 26.4 45.851 26.4 43.2V31.2C26.4 25.8981 22.1019 21.6 16.8 21.6H4.8C2.14903 21.6 0 19.451 0 16.8V7.2C0 3.22355 3.22355 0 7.2 0H40.8Z" fill="#05051E"/>
</g>
<defs>
<clipPath id="clip0_356_1402">
<rect width="48" height="48" fill="white"/>
</clipPath>
</defs>
</svg>
