<svg width="48" height="48" viewBox="0 0 48 48" fill="none" xmlns="http://www.w3.org/2000/svg">
<g clip-path="url(#clip0_356_1390)">
<path fill-rule="evenodd" clip-rule="evenodd" d="M5.75763 0H41.2828C44.9926 0 48 3.00865 48 6.72C48 10.4314 44.9926 13.44 41.2828 13.44H5.75763C2.57778 13.44 0 10.8612 0 7.68V5.76C0 2.57884 2.57778 0 5.75763 0ZM29.7576 17.28H41.2828C44.9926 17.28 48 20.2886 48 24C48 27.7114 44.9926 30.72 41.2828 30.72H29.7576C26.5778 30.72 24 28.1412 24 24.96V23.04C24 19.8588 26.5778 17.28 29.7576 17.28ZM15.3576 34.56H41.2828C44.9926 34.56 48 37.5686 48 41.28C48 44.9914 44.9926 48 41.2828 48H15.3576C12.1778 48 9.6 45.4212 9.6 42.24V40.32C9.6 37.1388 12.1778 34.56 15.3576 34.56Z" fill="#05051E"/>
</g>
<defs>
<clipPath id="clip0_356_1390">
<rect width="48" height="48" fill="white"/>
</clipPath>
</defs>
</svg>
