<svg width="48" height="48" viewBox="0 0 48 48" fill="none" xmlns="http://www.w3.org/2000/svg">
<g clip-path="url(#clip0_356_1359)">
<path fill-rule="evenodd" clip-rule="evenodd" d="M6.72 0H41.28C44.9914 0 48 3.00865 48 6.72V9.6C48 11.7208 46.2808 13.44 44.16 13.44H3.84C1.71923 13.44 0 11.7208 0 9.6V6.72C0 3.00865 3.00865 0 6.72 0ZM6.14667 17.28H41.8533C45.0345 17.28 47.6133 19.8588 47.6133 23.04C47.6133 23.3084 47.5946 23.5764 47.5572 23.8421L44.8572 43.0421C44.4574 45.8854 42.0246 48 39.1533 48H8.84667C5.97542 48 3.54263 45.8854 3.1428 43.0421L0.442796 23.8421C-0.000195474 20.6919 2.1944 17.7791 5.34457 17.3361C5.6103 17.2988 5.87832 17.28 6.14667 17.28Z" fill="#05051E"/>
</g>
<defs>
<clipPath id="clip0_356_1359">
<rect width="48" height="48" fill="white"/>
</clipPath>
</defs>
</svg>
