<svg width="48" height="48" viewBox="0 0 48 48" fill="none" xmlns="http://www.w3.org/2000/svg">
<g clip-path="url(#clip0_1695_282)">
<path fill-rule="evenodd" clip-rule="evenodd" d="M27.6699 20.7159L38.2788 9.76105C40.5021 7.46525 44.1655 7.40648 46.4613 9.62978C47.5869 10.7198 48.2224 12.2198 48.2224 13.7867V34.2133C48.2224 37.4092 45.6316 40 42.4357 40H31.8268C28.6309 40 26.0401 37.4092 26.0401 34.2133V24.7416C26.0401 23.239 26.6245 21.7953 27.6699 20.7159ZM1.62977 20.7159L12.2387 9.76105C14.462 7.46525 18.1255 7.40648 20.4213 9.62978C21.5469 10.7198 22.1823 12.2198 22.1823 13.7867V34.2133C22.1823 37.4092 19.5915 40 16.3956 40H5.78669C2.59079 40 0 37.4092 0 34.2133V24.7416C0 23.239 0.584465 21.7953 1.62977 20.7159Z" fill="#05051E"/>
</g>
<defs>
<clipPath id="clip0_1695_282">
<rect width="48" height="48" fill="white"/>
</clipPath>
</defs>
</svg>
