<svg width="48" height="48" viewBox="0 0 48 48" fill="none" xmlns="http://www.w3.org/2000/svg">
<path fill-rule="evenodd" clip-rule="evenodd" d="M42.297 4C45.4467 4 48 6.55837 48 9.71429V38.2857C48 41.4416 45.4467 44 42.297 44H38.495C35.3454 44 32.7921 41.4416 32.7921 38.2857V25.9048C32.7921 23.8008 31.0899 22.0952 28.9901 22.0952H27.5644C24.4147 22.0952 21.8614 19.5369 21.8614 16.381V9.71429C21.8614 6.55837 24.4147 4 27.5644 4H42.297ZM23.2871 25.9048C26.4368 25.9048 28.9901 28.4631 28.9901 31.619V38.2857C28.9901 41.4416 26.4368 44 23.2871 44H16.6337C13.484 44 10.9307 41.4416 10.9307 38.2857V31.619C10.9307 28.4631 13.484 25.9048 16.6337 25.9048H23.2871ZM12.3564 4C15.5061 4 18.0594 6.55837 18.0594 9.71429V16.381C18.0594 19.5369 15.5061 22.0952 12.3564 22.0952H5.70297C2.55331 22.0952 0 19.5369 0 16.381V9.71429C0 6.55837 2.55331 4 5.70297 4H12.3564Z" fill="#05051E"/>
</svg>
